<svg id="logo" xmlns="http://www.w3.org/2000/svg" viewBox="0 0 321.5 113.39"><defs><style>.cls-1{fill:#191919;}.cls-2{fill:#ff4fe4;}.cls-3{fill:#00b5ff;}.cls-4{fill:#ffb300;}.cls-5{fill:#00960a;}.cls-6{fill:#ff3607;}.cls-7{fill:#194eef;}</style></defs><title>Avenga_logo_L_positive_color</title><path class="cls-1" d="M125.46,40.33H137L149.1,75.54h-8.8l-2.26-7H124.46l-2.27,7h-8.8Zm10.31,21.13-4-12.58h-1l-4,12.58Z"/><path class="cls-1" d="M148.89,49.89h7.8L162,66.74h1l5.28-16.85h7.79L167.5,75.54H157.45Z"/><path class="cls-1" d="M203.86,67.74a13.26,13.26,0,0,1-2.56,4.18A12.87,12.87,0,0,1,191.54,76c-7.8,0-13.33-5.53-13.33-13.33s5.53-13.32,13.33-13.32c7.54,0,13.08,5.53,13.08,12.82a11,11,0,0,1-.16,1.91l-.09.6H185.76A5.6,5.6,0,0,0,191.54,70a6.32,6.32,0,0,0,3.62-1.11,5.11,5.11,0,0,0,1.16-1.16Zm-6.54-7.54c-.75-3.37-2.71-5-5.78-5s-5,1.66-5.78,5Z"/><path class="cls-1" d="M209.39,49.89h6.54l.5,2.26h.25a8.19,8.19,0,0,1,1.71-1.36,9.72,9.72,0,0,1,5.33-1.4c6,0,10.31,4.27,10.31,10.56V75.54h-7.54V61.46a4.78,4.78,0,0,0-9.56,0V75.54h-7.54Z"/><path class="cls-1" d="M247.05,76.54a3.12,3.12,0,0,0,.86,1.41,5.15,5.15,0,0,0,3.92,1.36c3.27,0,5-1.76,5-4.78v-3h-.25a6.1,6.1,0,0,1-1.51,1.26A8.14,8.14,0,0,1,250.58,74c-6.84,0-11.82-5-11.82-12.32s5-12.32,11.82-12.32a8.47,8.47,0,0,1,5,1.5,9,9,0,0,1,1.56,1.51h.26l.5-2.51h6.54V74.53c0,7-4.28,11.32-12.58,11.32-5.93,0-9.1-2.32-10.71-4.63a10.62,10.62,0,0,1-1.86-4.68Zm9.81-14.83A5.28,5.28,0,1,0,251.58,67,5.15,5.15,0,0,0,256.86,61.71Z"/><path class="cls-1" d="M286.28,73.27H286a6.58,6.58,0,0,1-1.71,1.41A9.79,9.79,0,0,1,279,76c-6,0-9.56-3.52-9.56-8.05,0-4.77,3.52-8.29,10.56-8.29h5.79v-.51c0-2.26-1.46-3.77-4-3.77a4.42,4.42,0,0,0-3.21,1.16,3.16,3.16,0,0,0-.81,1.1h-7.29c.55-4.57,4.27-8.29,11.31-8.29,7.5,0,11.57,4,11.57,9.75v16.4h-6.54Zm-.5-8.55H281c-2.82,0-4,1.21-4,2.77s1.25,2.77,3.52,2.77c3.27,0,5.28-2,5.28-5Z"/><path class="cls-2" d="M28.91,56.13c0-16.06-6.57-27.87,3.27-34.66C54.07,5,64.82,43.68,28.91,56.13Z"/><path class="cls-3" d="M64.22,81.83c11.57,5.17,18,9.84,24.49,2.67C95.2,77,101.12,61.2,64.22,81.83Z"/><path class="cls-4" d="M41.43,96.38c3.31.22,5.79-.54,9.22-3.25,3.88-3.06,6.25-7.13,13.57-11.3h0A47.05,47.05,0,0,0,51.37,78.3C35.23,76,14.06,85,41.43,96.38Z"/><path class="cls-5" d="M64.22,81.83C56.9,86,54.53,90.07,50.65,93.13c-3.43,2.71-5.91,3.47-9.22,3.25A42.31,42.31,0,0,0,88.71,84.5C82.2,91.67,75.79,87,64.22,81.83Z"/><path class="cls-4" d="M16.08,69.15s0,.11.05.16a42.05,42.05,0,0,0,2.66,6.54c7,13.87,10.49-5.33,10.12-19.72C17.14,60.06,14.9,65.14,16.08,69.15Z"/><path class="cls-6" d="M28.91,56.13c0-15.69-6.27-27.33,2.63-34.19A43,43,0,0,0,16.09,69.17C14.89,65.16,17.12,60.07,28.91,56.13Z"/><path class="cls-7" d="M69.49,15.51h0c3.75,1.53,4,7.38,2.29,11.73A65.47,65.47,0,0,0,69.2,35c-.14.64-.28,1.26-.42,1.87h0C73,40,82.89,40.55,90.24,43.8c5,2.21,8.87,5.7,9,12.17A42.75,42.75,0,0,0,69.49,15.51Z"/><path class="cls-3" d="M99.21,56.11C99.11,40,75.87,42.23,68.78,36.87,64.82,55.41,99.34,81,99.2,56.12"/><path class="cls-2" d="M68.78,36.87c-20-13.94-16.35-27,.7-21.35,3.75,1.53,4,7.38,2.29,11.73A50.91,50.91,0,0,0,68.78,36.87Z"/></svg>