<svg id="logo" xmlns="http://www.w3.org/2000/svg" viewBox="0 0 113.39 113.39"><defs><style>.cls-1{fill:#ff4fe4;}.cls-2{fill:#00b5ff;}.cls-3{fill:#ffb300;}.cls-4{fill:#00960a;}.cls-5{fill:#ff3607;}.cls-6{fill:#194eef;}</style></defs><title>Avenga_logo_S_positive_color</title><path class="cls-1" d="M28.91,56.13c0-16.06-6.57-27.87,3.27-34.66C54.07,5,64.82,43.68,28.91,56.13Z"/><path class="cls-2" d="M64.22,81.83c11.57,5.17,18,9.84,24.49,2.67C95.2,77,101.12,61.2,64.22,81.83Z"/><path class="cls-3" d="M41.43,96.38c3.31.22,5.79-.54,9.22-3.25,3.88-3.06,6.25-7.13,13.57-11.3h0A47.05,47.05,0,0,0,51.37,78.3C35.23,76,14.06,85,41.43,96.38Z"/><path class="cls-4" d="M64.22,81.83C56.9,86,54.53,90.07,50.65,93.13c-3.43,2.71-5.91,3.47-9.22,3.25A42.31,42.31,0,0,0,88.71,84.5C82.2,91.67,75.79,87,64.22,81.83Z"/><path class="cls-3" d="M16.08,69.15s0,.11.05.16a42.05,42.05,0,0,0,2.66,6.54c7,13.87,10.49-5.33,10.12-19.72C17.14,60.06,14.9,65.14,16.08,69.15Z"/><path class="cls-5" d="M28.91,56.13c0-15.69-6.27-27.33,2.63-34.19A43,43,0,0,0,16.09,69.17C14.89,65.16,17.12,60.07,28.91,56.13Z"/><path class="cls-6" d="M69.49,15.51h0c3.75,1.53,4,7.38,2.29,11.73A65.47,65.47,0,0,0,69.2,35c-.14.64-.28,1.26-.42,1.87h0C73,40,82.89,40.55,90.24,43.8c5,2.21,8.87,5.7,9,12.17A42.75,42.75,0,0,0,69.49,15.51Z"/><path class="cls-2" d="M99.21,56.11C99.11,40,75.87,42.23,68.78,36.87,64.82,55.41,99.34,81,99.2,56.12"/><path class="cls-1" d="M68.78,36.87c-20-13.94-16.35-27,.7-21.35,3.75,1.53,4,7.38,2.29,11.73A50.91,50.91,0,0,0,68.78,36.87Z"/></svg>